<svg width="36" height="36" viewBox="0 0 24 24" fill="none" xmlns="http://www.w3.org/2000/svg">
<path fill-rule="evenodd" clip-rule="evenodd" d="M1.25 22C1.25 21.5858 1.58579 21.25 2 21.25H22C22.4142 21.25 22.75 21.5858 22.75 22C22.75 22.4142 22.4142 22.75 22 22.75H2C1.58579 22.75 1.25 22.4142 1.25 22Z" />
<path fill-rule="evenodd" clip-rule="evenodd" d="M2.25 15C2.25 9.61579 6.61579 5.25 12 5.25C17.3842 5.25 21.75 9.61579 21.75 15V22C21.75 22.4142 21.4142 22.75 21 22.75H3C2.58579 22.75 2.25 22.4142 2.25 22V15ZM12 6.75C7.44421 6.75 3.75 10.4442 3.75 15V21.25H20.25V15C20.25 10.4442 16.5558 6.75 12 6.75Z" />
<path fill-rule="evenodd" clip-rule="evenodd" d="M12 1.25C12.4142 1.25 12.75 1.58579 12.75 2V3C12.75 3.41421 12.4142 3.75 12 3.75C11.5858 3.75 11.25 3.41421 11.25 3V2C11.25 1.58579 11.5858 1.25 12 1.25Z" />
<path fill-rule="evenodd" clip-rule="evenodd" d="M3.46967 3.46967C3.76256 3.17678 4.23744 3.17678 4.53033 3.46967L5.53033 4.46967C5.82322 4.76256 5.82322 5.23744 5.53033 5.53033C5.23744 5.82322 4.76256 5.82322 4.46967 5.53033L3.46967 4.53033C3.17678 4.23744 3.17678 3.76256 3.46967 3.46967Z" />
<path fill-rule="evenodd" clip-rule="evenodd" d="M20.5303 3.46967C20.8232 3.76256 20.8232 4.23744 20.5303 4.53033L19.5303 5.53033C19.2374 5.82322 18.7626 5.82322 18.4697 5.53033C18.1768 5.23744 18.1768 4.76256 18.4697 4.46967L19.4697 3.46967C19.7626 3.17678 20.2374 3.17678 20.5303 3.46967Z" />
</svg>
